<?xml version="1.0" standalone="no"?>
<!DOCTYPE svg PUBLIC "-//W3C//DTD SVG 20010904//EN"
 "http://www.w3.org/TR/2001/REC-SVG-20010904/DTD/svg10.dtd">
<svg version="1.0" xmlns="http://www.w3.org/2000/svg"
 width="82.000000pt" height="82.000000pt" viewBox="0 0 82.000000 82.000000"
 preserveAspectRatio="xMidYMid meet">

<g transform="translate(0.000000,82.000000) scale(0.100000,-0.100000)"
fill="#000000" stroke="none">
<path d="M303 733 l-93 -56 0 -313 c0 -173 2 -314 4 -314 12 0 179 105 182
114 2 6 3 149 2 318 l-3 306 -92 -55z"/>
<path d="M425 728 c4 -24 10 -46 14 -49 6 -6 114 -29 138 -29 7 0 13 6 13 14
0 14 -140 106 -161 106 -7 0 -8 -15 -4 -42z"/>
<path d="M620 403 c0 -60 4 -113 8 -119 9 -15 173 -107 178 -101 3 2 3 50 2
105 l-3 101 -83 -51 c-46 -27 -85 -48 -88 -45 -3 2 31 26 76 52 44 26 82 50
85 55 4 6 -157 110 -171 110 -2 0 -4 -48 -4 -107z"/>
<path d="M674 205 c8 -9 23 -29 32 -44 15 -26 20 -28 47 -20 16 5 32 10 34 13
6 5 -101 66 -116 66 -8 0 -7 -5 3 -15z"/>
<path d="M146 159 l-28 -40 27 -24 c14 -14 30 -25 36 -25 11 0 13 117 1 123
-4 3 -20 -13 -36 -34z"/>
</g>
</svg>
